<?xml version="1.0" encoding="utf-8"?>
<!-- Svg Vector Icons : http://www.onlinewebfonts.com/icon -->
<!DOCTYPE svg PUBLIC "-//W3C//DTD SVG 1.1//EN" "http://www.w3.org/Graphics/SVG/1.1/DTD/svg11.dtd">
<svg version="1.1" xmlns="http://www.w3.org/2000/svg" xmlns:xlink="http://www.w3.org/1999/xlink" x="0px" y="0px" viewBox="0 0 256 256" enable-background="new 0 0 256 256" xml:space="preserve">
<metadata> Svg Vector Icons : http://www.onlinewebfonts.com/icon </metadata>
<g><g><g><path fill="#000000" d="M110.7,16.7c-8.5,0.9-20.5,3.5-26.9,5.9c-6.9,2.5-14.2,8.3-18.3,14.6c-10.3,15.6-8.1,34.6,6.3,52.7c1.6,2.1,8.8,9.1,16.5,16.4l13.6,12.6l-1.6,2.2c-4,5.5-5.7,11.5-5.3,18.7l0.2,4.5l-6.6-0.3c-11.3-0.5-19-3.2-23.8-8.4c-11.5-12.6-17.3-16.3-26.5-16.8c-7.1-0.4-12.9,2-18.9,7.9c-4,3.9-4.8,5.5-6.8,13.5c-7.8,30.6,2,61.8,27,85.5c7.4,7,11.3,9.6,18,11.7c19,6.2,39.7-3.8,49.4-23.7c3.3-6.9,4.3-10.5,7.9-29.7l3.4-18.1l3.9,0.2c7.2,0.4,14.9-2.3,20-6.8l2.5-2.2l0.9,1.2c1.6,2.2,5,8.3,6.3,11.2c3.4,8.2,3.9,14.8,1.6,21.3c-2.1,5.8-2.8,9.8-2.8,15.5c0,8.5,1.9,13.8,6.8,18.7c5.1,5.1,14.3,8.8,20.3,8.1c6.5-0.8,18-5.2,25.8-9.9c21.7-13,35.5-33.7,41.4-62.3c3.1-15-0.5-28.3-10.2-38.1c-8.2-8.2-17.9-11.5-32.7-11c-10.2,0.4-14,1.4-34.4,9.1l-17.2,6.6l-1.6-3.1c-2.5-4.9-7.7-9.8-13-12.4l-4.3-2.1l2.6-4c5-7.4,11.7-13.5,17.2-15.6c1.3-0.5,4.1-1.1,6.2-1.4c19.9-2.4,32.1-14.9,29.9-30.6c-0.9-6.6-1.9-8.9-6-13.8c-6.5-7.8-15.7-14.8-25.7-19.8c-11.4-5.6-21.3-8-34.4-8.2C116.4,16.6,111.8,16.6,110.7,16.7z M128.9,27.3c11.7,1.4,25.1,7,34.5,14.5c1.9,1.5,5.4,4.8,7.8,7.3c5,5.2,5.8,7.1,5.8,13.1c0,2.9-0.2,4.1-1.2,6c-2.8,5.8-10.3,9.8-20.4,10.9c-7.2,0.9-11.8,2.9-18.1,8c-5.2,4.2-10.1,10.2-14.5,17.9l-2.4,4.1l-2.7,0.6c-1.5,0.3-3.9,1.1-5.4,1.8c-2.7,1.2-2.7,1.2-3.8,0.3c-15.7-13.9-28-25.7-30.6-29.2c-6-8-9-15.9-9-23.8c0-8,2.7-14.4,8.6-20.3c4.4-4.4,8.3-6.6,15.7-8.5C106.2,26.7,116.4,25.9,128.9,27.3z M130.9,120.1c3.8,1.5,7.9,5.4,9.9,9.4c1.4,2.9,1.6,3.5,1.6,7.6c0,4-0.1,4.8-1.5,7.5c-2.7,5.7-8.1,9.8-14.4,10.8c-10.4,1.8-20.6-6.2-21.5-16.8c-0.7-8.7,4.6-16.4,13.3-19.3C121.1,118.5,127.6,118.9,130.9,120.1z M211.2,122.3c11.5,2.4,19.2,9.1,23.1,20.5c1.4,4.1,1.2,12.4-0.5,19.6c-2,8.5-4.2,14.9-7.8,22.2c-9.5,19.1-25.9,32.8-45.5,37.7c-4,1-4.5,1.1-7.4,0.5c-8.2-1.7-12.1-6.3-12.5-14.8c-0.2-5,0.3-8.5,2.4-14.2c4.2-12,0.7-27.1-9.9-42l-2.8-3.9l0.7-1.9c0.4-1.1,0.8-3.3,0.9-5l0.3-3.1l18-6.9c9.9-3.8,19.2-7.3,20.8-7.6C197.9,121.5,205.6,121.2,211.2,122.3z M41.8,129.6c3.9,1.3,7.5,3.7,10.7,7.1c8.8,9.4,9.6,10.1,14.2,12.3c7.4,3.6,17.6,5.4,27.5,4.9l5.1-0.3l3.6,3.7c2,2,4.1,4,4.7,4.3l1,0.7l-3.4,17.9c-3.8,20-4.3,22-6.9,27.4c-7.7,16.5-21.1,23.9-36.4,20.2c-6-1.5-12.8-6.2-19.8-13.9c-18.3-19.8-25.6-41.9-21.7-65.1c1.5-8.8,3.4-13.3,6.9-16.1C32.1,128.8,36.4,127.8,41.8,129.6z"/></g></g></g>
</svg>